# Blender v2.77 (sub 0) OBJ File: 'shotgun.blend'
# www.blender.org
mtllib shotgun.mtl
o Gun_Cube.008
v -0.110000 0.240000 -0.270000
v -0.110000 0.240000 -0.930000
v 0.110000 0.240000 -0.930000
v 0.110000 0.240000 -0.270000
v -0.110000 0.460000 -0.270000
v -0.110000 0.460000 -0.930000
v 0.110000 0.460000 -0.930000
v 0.110000 0.460000 -0.270000
vt 0.500000 0.625000
vt 0.000000 0.375000
vt -0.000000 0.625000
vt 0.062500 0.375000
vt 0.000000 0.500000
vt 0.000000 0.375000
vt 0.000000 0.625000
vt 0.500000 0.375000
vt 0.500000 0.625000
vt 0.000000 0.500000
vt 0.062500 0.375000
vt 0.062500 0.500000
vt 0.000000 0.375000
vt 0.062500 0.500000
vt 0.000000 0.500000
vt 0.062500 0.625000
vt 0.500000 0.375000
vt 0.062500 0.500000
vt -0.000000 0.375000
vt 0.062500 0.375000
vt 0.000000 0.625000
vn -1.000000 0.000000 0.000000
vn 0.000000 0.000000 -1.000000
vn 1.000000 0.000000 0.000000
vn 0.000000 0.000000 1.000000
vn 0.000000 -1.000000 0.000000
vn 0.000000 1.000000 0.000000
usemtl Shotgun_Texture
s off
f 6/1/1 1/2/1 5/3/1
f 7/4/2 2/5/2 6/6/2
f 8/7/3 3/8/3 7/9/3
f 5/10/4 4/11/4 8/12/4
f 2/13/5 4/14/5 1/15/5
f 7/16/6 5/10/6 8/12/6
f 6/1/1 2/17/1 1/2/1
f 7/4/2 3/18/2 2/5/2
f 8/7/3 4/19/3 3/8/3
f 5/10/4 1/2/4 4/11/4
f 2/13/5 3/20/5 4/14/5
f 7/16/6 6/21/6 5/10/6
o Stock_2_Cube.005
v -0.110000 0.150961 -1.093399
v -0.110000 0.089575 -1.971255
v 0.110000 0.089575 -1.971255
v 0.110000 0.150961 -1.093399
v -0.110000 0.370425 -1.108745
v -0.110000 0.309039 -1.986602
v 0.110000 0.309039 -1.986602
v 0.110000 0.370425 -1.108745
v -0.110000 0.089575 -1.971255
v 0.110000 0.089575 -1.971255
v -0.110000 0.089575 -1.971255
v 0.110000 0.089575 -1.971255
v -0.110000 0.089575 -1.971255
v 0.110000 0.089575 -1.971255
v -0.110000 -0.020157 -1.963582
v 0.110000 -0.020157 -1.963582
vt -0.000000 1.000000
vt 0.500000 0.750000
vt 0.500000 1.000000
vt 0.000000 1.000000
vt 0.125000 0.750000
vt 0.125000 1.000000
vt 0.500000 1.000000
vt 0.000000 0.750000
vt 0.500000 0.750000
vt -0.000000 1.000000
vt 0.062500 0.875000
vt 0.062500 1.000000
vt 0.062500 0.875000
vt -0.000000 0.875000
vt 1.000000 0.906250
vt -0.000000 0.906250
vt 1.000000 0.906250
vt -0.000000 0.906250
vt 1.000000 0.906250
vt -0.000000 0.906250
vt 1.000000 0.906250
vt 0.125000 0.875000
vt -0.000000 1.000000
vt -0.000000 0.875000
vt 0.500000 0.875000
vt 0.500000 1.000000
vt -0.000000 1.000000
vt 0.500000 1.000000
vt -0.000000 0.875000
vt 0.062500 0.750000
vt 0.000000 0.875000
vt 0.000000 0.750000
vt -0.000000 0.750000
vt 0.000000 0.750000
vt 0.000000 1.000000
vt 0.062500 1.000000
vt -0.000000 0.906250
vt 0.125000 1.000000
vt 0.062500 0.875000
vn -1.000000 0.000000 0.000000
vn 0.000000 -0.069800 -0.997600
vn 1.000000 0.000000 0.000000
vn 0.000000 0.069800 0.997600
vn 0.000000 0.997600 -0.069800
vn 0.000000 0.000000 1.000000
vn 0.000000 -0.981200 0.193000
usemtl Shotgun_Texture
s off
f 14/22/7 9/23/7 13/24/7
f 15/25/8 10/26/8 14/27/8
f 15/28/9 12/29/9 11/30/9
f 13/31/10 12/32/10 16/33/10
f 15/34/11 13/31/11 16/35/11
f 11/36/12 17/37/12 18/38/12
f 18/38/12 19/39/12 20/40/12
f 20/40/12 21/41/12 22/42/12
f 11/43/8 23/44/8 10/45/8
f 24/46/9 11/47/9 12/48/9
f 10/49/7 23/44/7 9/50/7
f 23/51/13 12/52/13 9/53/13
f 14/22/7 10/54/7 9/23/7
f 15/25/8 11/55/8 10/26/8
f 15/28/9 16/56/9 12/29/9
f 13/31/10 9/50/10 12/32/10
f 15/34/11 14/57/11 13/31/11
f 11/36/12 10/58/12 17/37/12
f 18/38/12 17/37/12 19/39/12
f 20/40/12 19/39/12 21/41/12
f 11/43/8 24/59/8 23/44/8
f 23/51/13 24/60/13 12/52/13
o Stock_1_Cube.003
v -0.100000 0.257334 -0.824844
v -0.100000 0.154728 -1.106752
v 0.100000 0.154728 -1.106752
v 0.100000 0.257334 -0.824844
v -0.100000 0.445272 -0.893248
v -0.100000 0.342666 -1.175156
v 0.100000 0.342666 -1.175156
v 0.100000 0.445272 -0.893248
v -0.100000 0.257334 -0.824844
v 0.100000 0.257334 -0.824844
v -0.100000 0.257334 -0.824844
v 0.100000 0.257334 -0.824844
v -0.100000 0.257334 -0.824844
v 0.100000 0.257334 -0.824844
v -0.100000 0.257334 -0.824844
v 0.100000 0.257334 -0.824844
v -0.100000 0.154728 -1.106752
v 0.100000 0.154728 -1.106752
vt 0.000000 1.000000
vt 0.187500 0.750000
vt 0.187500 1.000000
vt 0.187500 1.000000
vt -0.000000 0.750000
vt 0.187500 0.750000
vt 0.000000 0.750000
vt 0.062500 0.875000
vt 0.000000 0.875000
vt 0.062500 1.000000
vt -0.000000 0.875000
vt 0.062500 0.875000
vt 1.000000 0.875000
vt -0.000000 0.875000
vt 1.000000 0.875000
vt -0.000000 0.875000
vt 1.000000 0.875000
vt -0.000000 0.875000
vt 1.000000 0.875000
vt -0.000000 0.875000
vt 1.000000 0.906250
vt 0.000000 0.906250
vt 1.000000 0.906250
vt -0.000000 1.000000
vt 0.062500 0.750000
vt 1.000000 0.875000
vt 0.000000 0.906250
vn -1.000000 0.000000 0.000000
vn 1.000000 0.000000 0.000000
vn 0.000000 -0.939700 0.342000
vn 0.000000 0.939700 -0.342000
vn 0.000000 0.000000 1.000000
usemtl Shotgun_Texture
s off
f 30/61/14 25/62/14 29/63/14
f 31/64/15 28/65/15 27/66/15
f 26/67/16 28/68/16 25/69/16
f 31/70/17 29/71/17 32/72/17
f 25/69/18 34/73/18 33/74/18
f 33/74/18 36/75/18 35/76/18
f 35/76/18 38/77/18 37/78/18
f 37/78/18 40/79/18 39/80/18
f 27/81/18 41/82/18 42/83/18
f 30/61/14 26/67/14 25/62/14
f 31/64/15 32/84/15 28/65/15
f 26/67/16 27/85/16 28/68/16
f 31/70/17 30/61/17 29/71/17
f 25/69/18 28/86/18 34/73/18
f 33/74/18 34/73/18 36/75/18
f 35/76/18 36/75/18 38/77/18
f 37/78/18 38/77/18 40/79/18
f 27/81/18 26/87/18 41/82/18
o Pump_Cube.002
v -0.065000 0.230000 0.700000
v -0.065000 0.230000 0.300000
v 0.065000 0.230000 0.300000
v 0.065000 0.230000 0.700000
v -0.065000 0.360000 0.700000
v -0.065000 0.360000 0.300000
v 0.065000 0.360000 0.300000
v 0.065000 0.360000 0.700000
vt 0.500000 0.750000
vt 0.000000 1.000000
vt 0.000000 0.750000
vt 0.125000 0.750000
vt -0.000000 1.000000
vt -0.000000 0.750000
vt 0.500000 0.750000
vt -0.000000 1.000000
vt -0.000000 0.750000
vt 0.125000 0.750000
vt 0.000000 1.000000
vt 0.000000 0.750000
vt 0.000000 0.875000
vt 0.062500 0.750000
vt 0.000000 0.750000
vt 0.500000 1.000000
vt 0.125000 1.000000
vt 0.500000 1.000000
vt 0.125000 1.000000
vt 0.062500 0.875000
vn -1.000000 0.000000 0.000000
vn 0.000000 0.000000 -1.000000
vn 1.000000 0.000000 0.000000
vn 0.000000 0.000000 1.000000
vn 0.000000 -1.000000 0.000000
usemtl Shotgun_Texture
s off
f 48/88/19 43/89/19 47/90/19
f 49/91/20 44/92/20 48/93/20
f 50/94/21 45/95/21 49/96/21
f 47/97/22 46/98/22 50/99/22
f 44/100/23 46/101/23 43/102/23
f 48/88/19 44/103/19 43/89/19
f 49/91/20 45/104/20 44/92/20
f 50/94/21 46/105/21 45/95/21
f 47/97/22 43/106/22 46/98/22
f 44/100/23 45/107/23 46/101/23
o Barrel_2_Cube.001
v -0.050000 0.250000 1.100000
v -0.050000 0.250000 -0.300000
v 0.050000 0.250000 -0.300000
v 0.050000 0.250000 1.100000
v -0.050000 0.350000 1.100000
v -0.050000 0.350000 -0.300000
v 0.050000 0.350000 -0.300000
v 0.050000 0.350000 1.100000
vt 1.000000 0.375000
vt 0.000000 0.500000
vt 0.000000 0.375000
vt -0.000000 0.500000
vt 1.000000 0.375000
vt 1.000000 0.500000
vt 0.062500 0.500000
vt 0.062500 0.375000
vt -0.000000 0.375000
vt 1.000000 0.500000
vt 0.999900 0.999900
vt -0.000000 0.968750
vt 1.000000 0.968750
vt 1.000000 0.500000
vt -0.000000 0.375000
vt 0.000100 0.999900
vn -1.000000 0.000000 0.000000
vn 1.000000 0.000000 0.000000
vn 0.000000 0.000000 1.000000
vn 0.000000 -1.000000 0.000000
vn 0.000000 1.000000 0.000000
usemtl Shotgun_Texture
s off
f 56/108/24 51/109/24 55/110/24
f 58/111/25 53/112/25 57/113/25
f 55/110/26 54/114/26 58/115/26
f 52/116/27 54/117/27 51/109/27
f 57/118/28 55/119/28 58/120/28
f 56/108/24 52/121/24 51/109/24
f 58/111/25 54/122/25 53/112/25
f 55/110/26 51/109/26 54/114/26
f 52/116/27 53/112/27 54/117/27
f 57/118/28 56/123/28 55/119/28
o Barrel_1_Cube
v 0.100000 0.350000 -0.300000
v 0.100000 0.350000 1.300000
v -0.100000 0.350000 1.299999
v -0.100000 0.350000 -0.300000
v 0.100000 0.450000 -0.299999
v 0.100000 0.450000 1.300000
v -0.100000 0.450000 1.299999
v -0.100000 0.450000 -0.300000
vt 1.000000 0.500000
vt -0.000000 0.750000
vt -0.000000 0.500000
vt 1.000000 0.625000
vt 0.000000 0.500000
vt 1.000000 0.500000
vt 0.062500 0.250000
vt 0.000000 0.375000
vt 0.000000 0.250000
vt 0.000000 0.625000
vt 1.000000 0.750000
vt 0.000000 0.750000
vt 1.000000 0.750000
vt 0.000000 0.625000
vt 0.062500 0.375000
vt 1.000000 0.625000
vt 0.062500 0.750000
vt 0.000000 0.625000
vt 0.062500 0.625000
vt 0.000000 0.750000
vn 0.000000 1.000000 -0.000000
vn 1.000000 -0.000000 0.000000
vn -0.000000 -0.000000 1.000000
vn -1.000000 -0.000000 -0.000000
vn 0.000000 -1.000000 -0.000000
usemtl Shotgun_Texture_Shotgun_Texture.png
s off
f 63/124/29 65/125/29 64/126/29
f 63/127/30 60/128/30 59/129/30
f 64/130/31 61/131/31 60/132/31
f 65/133/32 62/134/32 61/135/32
f 63/124/29 66/136/29 65/125/29
f 63/127/30 64/137/30 60/128/30
f 64/130/31 65/138/31 61/131/31
f 65/133/32 66/139/32 62/134/32
usemtl Shotgun_Texture
f 59/140/33 61/141/33 62/142/33
f 59/140/33 60/143/33 61/141/33
