# Blender v2.77 (sub 0) OBJ File: 'turret.blend'
# www.blender.org
mtllib turret.mtl
g Head_Cube_6
v -0.600000 1.400000 0.350000
v -0.600000 2.000000 0.350000
v -0.600000 1.400000 -0.350000
v -0.600000 2.000000 -0.350000
v 0.600000 1.400000 0.350000
v 0.600000 2.000000 0.350000
v 0.600000 1.400000 -0.350000
v 0.600000 2.000000 -0.350000
vt 0.390625 1.000000
vt 0.515625 0.812500
vt 0.515625 1.000000
vt 0.203125 1.000000
vt 0.390625 0.812500
vt 0.390625 1.000000
vt 0.515625 0.812500
vt 0.515625 1.000000
vt 0.203125 1.000000
vt 0.390625 0.812500
vt 0.203125 0.812500
vt 0.390625 1.000000
vt 0.203125 1.000000
vt 0.390625 0.812500
vt 0.203125 0.812500
vt 0.203125 0.812500
vt 0.390625 0.812500
vt 0.203125 0.812500
vn -1.000000 0.000000 0.000000
vn 0.000000 0.000000 -1.000000
vn 1.000000 0.000000 0.000000
vn 0.000000 0.000000 1.000000
vn 0.000000 -1.000000 0.000000
vn 0.000000 1.000000 0.000000
usemtl Base
s off
f 4/1/1 1/2/1 2/3/1
f 8/4/2 3/5/2 4/1/2
f 6/6/3 7/7/3 8/8/3
f 2/9/4 5/10/4 6/6/4
f 3/11/5 5/12/5 1/13/5
f 8/14/6 2/9/6 6/6/6
f 4/1/1 3/5/1 1/2/1
f 8/4/2 7/15/2 3/5/2
f 6/6/3 5/10/3 7/7/3
f 2/9/4 1/16/4 5/10/4
f 3/11/5 7/17/5 5/12/5
f 8/14/6 4/18/6 2/9/6
g Base_Cube_1
v 0.650000 0.000000 -0.650000
v 0.650000 0.000000 0.650000
v -0.650000 0.000000 0.650000
v -0.649999 0.000000 -0.650000
v 0.650000 0.800000 -0.649999
v 0.649999 0.800000 0.650000
v -0.650000 0.800000 0.649999
v -0.650000 0.800000 -0.650000
vt 0.203125 0.343750
vt 0.000000 0.750000
vt -0.000000 0.343750
vt 0.203125 0.343750
vt 0.000000 0.750000
vt 0.000000 0.343750
vt 0.203125 1.000000
vt 0.000000 0.750000
vt 0.203125 0.750000
vt 0.203125 1.000000
vt 0.000000 0.750000
vt 0.203125 0.750000
vt 0.203125 0.750000
vt 0.000000 1.000000
vt 0.000000 0.750000
vt 0.203125 1.000000
vt 0.000000 1.000000
vt 0.203125 0.750000
vt 0.000000 1.000000
vt 0.000000 1.000000
vt 0.203125 1.000000
vt 0.203125 0.750000
vn 0.000000 -1.000000 0.000000
vn 0.000000 1.000000 0.000000
vn 1.000000 -0.000000 0.000000
vn -0.000000 -0.000000 1.000000
vn -1.000000 -0.000000 -0.000000
vn 0.000000 0.000000 -1.000000
usemtl Base
s off
f 10/19/7 12/20/7 9/21/7
f 16/22/8 14/23/8 13/24/8
f 13/25/9 10/26/9 9/27/9
f 14/28/10 11/29/10 10/30/10
f 11/31/11 16/32/11 12/20/11
f 9/33/12 16/34/12 13/35/12
f 10/19/7 11/31/7 12/20/7
f 16/22/8 15/36/8 14/23/8
f 13/25/9 14/37/9 10/26/9
f 14/28/10 15/38/10 11/29/10
f 11/31/11 15/39/11 16/32/11
f 9/33/12 12/40/12 16/34/12
g Base_2_Cube_2
v 0.400000 0.800000 -0.400000
v 0.400000 0.800000 0.400000
v -0.400000 0.800000 0.400000
v -0.400000 0.800000 -0.400000
v 0.400000 1.000000 -0.400000
v 0.400000 1.000000 0.400000
v -0.400000 1.000000 0.400000
v -0.400000 1.000000 -0.400000
vt 0.203125 0.718750
vt 0.328125 0.812500
vt 0.203125 0.812500
vt 0.203125 1.000000
vt 0.328125 0.906250
vt 0.328125 1.000000
vt 0.203125 0.718750
vt 0.328125 0.812500
vt 0.203125 0.718750
vt 0.328125 0.812500
vt 0.203125 0.812500
vt 0.203125 0.718750
vt 0.203125 0.812500
vt 0.203125 0.718750
vt 0.328125 0.812500
vt 0.203125 0.812500
vt 0.328125 0.718750
vt 0.203125 0.906250
vt 0.328125 0.718750
vt 0.328125 0.718750
vt 0.328125 0.718750
vt 0.328125 0.718750
vn 0.000000 -1.000000 0.000000
vn 0.000000 1.000000 -0.000000
vn 1.000000 -0.000000 0.000000
vn 0.000000 -0.000000 1.000000
vn -1.000000 -0.000000 -0.000000
vn 0.000000 0.000000 -1.000000
usemtl Base
s off
f 18/41/13 20/42/13 17/43/13
f 21/44/14 23/45/14 22/46/14
f 21/47/15 18/48/15 17/43/15
f 22/49/16 19/50/16 18/51/16
f 23/52/17 20/42/17 19/53/17
f 17/54/18 24/55/18 21/56/18
f 18/41/13 19/57/13 20/42/13
f 21/44/14 24/58/14 23/45/14
f 21/47/15 22/59/15 18/48/15
f 22/49/16 23/60/16 19/50/16
f 23/52/17 24/61/17 20/42/17
f 17/54/18 20/62/18 24/55/18
g Base_3_Cube_3
v 0.500000 1.000000 -0.500000
v 0.500000 1.000000 0.500000
v -0.500000 1.000000 0.500000
v -0.500000 1.000000 -0.500000
v 0.500000 1.100000 -0.499999
v 0.499999 1.100000 0.500000
v -0.500000 1.100000 0.500000
v -0.500000 1.100000 -0.500000
vt 0.000000 0.031250
vt 0.156250 0.343750
vt -0.000000 0.343750
vt 0.156250 0.031250
vt 0.000000 0.343750
vt -0.000000 0.031250
vt 0.000000 0.343750
vt 0.156250 0.312500
vt 0.156250 0.343750
vt -0.000000 0.312500
vt 0.000000 0.343750
vt -0.000000 0.312500
vt 0.156250 0.312500
vt 0.156250 0.312500
vt 0.000000 0.343750
vt 0.000000 0.312500
vt 0.156250 0.031250
vt 0.156250 0.343750
vt 0.156250 0.312500
vt 0.000000 0.343750
vt 0.156250 0.343750
vn 0.000000 -1.000000 0.000000
vn 0.000000 1.000000 0.000000
vn 1.000000 -0.000000 0.000000
vn -0.000000 -0.000000 1.000000
vn -1.000000 -0.000000 -0.000000
vn 0.000000 0.000000 -1.000000
usemtl Base
s off
f 25/63/19 27/64/19 28/65/19
f 32/66/20 30/67/20 29/68/20
f 29/69/21 26/70/21 25/71/21
f 30/72/22 27/64/22 26/73/22
f 27/64/23 32/74/23 28/75/23
f 25/76/24 32/77/24 29/78/24
f 25/63/19 26/79/19 27/64/19
f 32/66/20 31/80/20 30/67/20
f 29/69/21 30/72/21 26/70/21
f 30/72/22 31/81/22 27/64/22
f 27/64/23 31/82/23 32/74/23
f 25/76/24 28/83/24 32/77/24
g Claw_2_Cube_5
v -0.200000 1.108333 -0.350000
v -0.200000 1.108333 -0.450000
v 0.200000 1.108333 -0.450000
v 0.200000 1.108333 -0.350000
v -0.200000 1.691667 -0.350000
v -0.200000 1.691667 -0.450000
v 0.200000 1.691667 -0.450000
v 0.200000 1.691667 -0.350000
v -0.200000 1.808333 -0.350000
v 0.200000 1.808333 -0.350000
vt 0.000000 0.000000
vt 0.000000 0.000000
vt 0.000000 0.000000
vt 0.000000 0.000000
vt 0.000000 0.000000
vt 0.000000 0.000000
vt 0.203125 0.687500
vt 0.218750 0.500000
vt 0.218750 0.687500
vt 0.265625 0.687500
vt 0.203125 0.500000
vt 0.265625 0.500000
vt 0.203125 0.687500
vt 0.218750 0.500000
vt 0.218750 0.687500
vt 0.203125 0.500000
vt 0.265625 0.687500
vt 0.265625 0.718750
vt 0.203125 0.656250
vt 0.203125 0.718750
vt 0.218750 0.687500
vt 0.203125 0.718750
vt 0.203125 0.687500
vt 0.203125 0.718750
vt 0.218750 0.687500
vt 0.265625 0.656250
vt 0.203125 0.656250
vt 0.000000 0.000000
vt 0.000000 0.000000
vt 0.203125 0.500000
vt 0.203125 0.500000
vt 0.265625 0.500000
vt 0.265625 0.656250
vt 0.265625 0.718750
vn 0.000000 -1.000000 -0.000000
vn 0.000000 1.000000 -0.000000
vn -1.000000 -0.000000 -0.000000
vn 0.000000 -0.000000 -1.000000
vn 1.000000 -0.000000 0.000000
vn -0.000000 0.000000 1.000000
vn 0.000000 0.650800 -0.759300
usemtl Base
s off
f 34/84/25 36/85/25 33/86/25
f 40/87/26 38/88/26 37/89/26
f 37/90/27 34/91/27 33/92/27
f 38/93/28 35/94/28 34/95/28
f 39/96/29 36/97/29 35/98/29
f 33/99/30 40/100/30 37/90/30
f 40/101/30 41/102/30 37/103/30
f 37/104/27 41/105/27 38/106/27
f 42/107/29 40/108/29 39/96/29
f 38/109/31 42/107/31 39/110/31
f 34/84/25 35/111/25 36/85/25
f 40/87/26 39/112/26 38/88/26
f 37/90/27 38/113/27 34/91/27
f 38/93/28 39/96/28 35/94/28
f 39/96/29 40/114/29 36/97/29
f 33/99/30 36/115/30 40/100/30
f 40/101/30 42/116/30 41/102/30
f 38/109/31 41/117/31 42/107/31
g Barrel_Cube_9
v 0.600000 1.487868 -0.000000
v 0.600000 1.700000 0.212132
v 0.600000 1.700000 -0.212132
v 0.600000 1.912132 0.000000
v 1.600000 1.487868 -0.000000
v 1.600000 1.700000 0.212132
v 1.600000 1.700000 -0.212132
v 1.600000 1.912132 0.000000
vt 0.953125 0.906250
vt 0.906250 1.000000
vt 0.906250 0.906250
vt 0.953125 0.687500
vt 1.000000 1.000000
vt 0.953125 1.000000
vt 0.906250 0.906250
vt 0.953125 1.000000
vt 0.906250 1.000000
vt 0.953125 0.687500
vt 1.000000 1.000000
vt 0.953125 1.000000
vt 1.000000 0.687500
vt 0.953125 0.687500
vt 1.000000 0.687500
vt 0.953125 1.000000
vt 0.953125 0.687500
vt 0.953125 1.000000
vt 1.000000 0.687500
vt 0.953125 0.906250
vt 1.000000 0.687500
vt 1.000000 1.000000
vt 1.000000 1.000000
vn -1.000000 0.000000 0.000000
vn 0.000000 0.707100 -0.707100
vn 1.000000 0.000000 0.000000
vn 0.000000 -0.707100 0.707100
vn 0.000000 -0.707100 -0.707100
vn 0.000000 0.707100 0.707100
usemtl Base
s off
f 46/118/32 43/119/32 44/120/32
f 50/121/33 45/122/33 46/123/33
f 50/124/34 47/125/34 49/126/34
f 44/127/35 47/128/35 48/129/35
f 45/130/36 47/125/36 43/131/36
f 50/132/37 44/133/37 48/134/37
f 46/118/32 45/135/32 43/119/32
f 50/121/33 49/136/33 45/122/33
f 50/124/34 48/137/34 47/125/34
f 44/127/35 43/138/35 47/128/35
f 45/130/36 49/139/36 47/125/36
f 50/132/37 46/140/37 44/133/37
g Antenna_Cube_7
v -0.425000 2.000000 0.325000
v -0.425000 2.300000 0.325000
v -0.425000 2.000000 0.275000
v -0.425000 2.300000 0.275000
v -0.375000 2.000000 0.325000
v -0.375000 2.300000 0.325000
v -0.375000 2.000000 0.275000
v -0.375000 2.300000 0.275000
vt 0.015625 0.968750
vt -0.000000 1.000000
vt -0.000000 0.968750
vt 0.015625 0.968750
vt -0.000000 1.000000
vt -0.000000 0.968750
vt 0.015625 0.968750
vt -0.000000 1.000000
vt -0.000000 0.968750
vt 0.015625 0.968750
vt -0.000000 1.000000
vt -0.000000 0.968750
vt 0.015625 0.968750
vt -0.000000 0.968750
vt -0.000000 1.000000
vt 0.015625 1.000000
vt 0.015625 1.000000
vt 0.015625 1.000000
vt 0.015625 1.000000
vt 0.015625 1.000000
vn -1.000000 0.000000 0.000000
vn 0.000000 0.000000 -1.000000
vn 1.000000 0.000000 0.000000
vn 0.000000 0.000000 1.000000
vn 0.000000 -1.000000 0.000000
vn 0.000000 1.000000 0.000000
usemtl Base
s off
f 54/141/38 51/142/38 52/143/38
f 58/144/39 53/145/39 54/146/39
f 56/147/40 57/148/40 58/149/40
f 52/150/41 55/151/41 56/152/41
f 53/153/42 55/151/42 51/154/42
f 58/144/43 52/155/43 56/152/43
f 54/141/38 53/156/38 51/142/38
f 58/144/39 57/157/39 53/145/39
f 56/147/40 55/158/40 57/148/40
f 52/150/41 51/159/41 55/151/41
f 53/153/42 57/157/42 55/151/42
f 58/144/43 54/160/43 52/155/43
g Antenna_Top_Cube_8
v -0.450000 2.300000 0.350000
v -0.450000 2.400000 0.350000
v -0.450000 2.300000 0.250000
v -0.450000 2.400000 0.250000
v -0.350000 2.300000 0.350000
v -0.350000 2.400000 0.350000
v -0.350000 2.300000 0.250000
v -0.350000 2.400000 0.250000
vt 0.343750 0.781250
vt 0.328125 0.812500
vt 0.328125 0.781250
vt 0.343750 0.781250
vt 0.328125 0.812500
vt 0.328125 0.781250
vt 0.343750 0.781250
vt 0.328125 0.812500
vt 0.328125 0.781250
vt 0.343750 0.781250
vt 0.328125 0.812500
vt 0.328125 0.781250
vt 0.343750 0.781250
vt 0.328125 0.781250
vt 0.328125 0.812500
vt 0.343750 0.812500
vt 0.343750 0.812500
vt 0.343750 0.812500
vt 0.343750 0.812500
vt 0.343750 0.812500
vn -1.000000 0.000000 0.000000
vn 0.000000 0.000000 -1.000000
vn 1.000000 0.000000 0.000000
vn 0.000000 0.000000 1.000000
vn 0.000000 -1.000000 0.000000
vn 0.000000 1.000000 0.000000
usemtl Base
s off
f 62/161/44 59/162/44 60/163/44
f 66/164/45 61/165/45 62/166/45
f 64/167/46 65/168/46 66/169/46
f 60/170/47 63/171/47 64/172/47
f 61/173/48 63/171/48 59/174/48
f 66/164/49 60/175/49 64/172/49
f 62/161/44 61/176/44 59/162/44
f 66/164/45 65/177/45 61/165/45
f 64/167/46 63/178/46 65/168/46
f 60/170/47 59/179/47 63/171/47
f 61/173/48 65/177/48 63/171/48
f 66/164/49 62/180/49 60/175/49
g Barrel_Tip_Cube_10
v 1.575000 1.700000 0.247487
v 1.575000 1.947488 0.000000
v 1.575000 1.700000 -0.247487
v 1.575000 1.452513 -0.000000
v 2.125000 1.700000 0.247487
v 2.125000 1.452513 -0.000000
v 2.125000 1.947488 0.000000
v 2.125000 1.700000 -0.247487
v 2.125000 1.700000 0.141421
v 2.125000 1.700000 -0.141421
v 2.125000 1.558579 -0.000000
v 2.125000 1.841421 0.000000
v 1.960000 1.700000 0.141421
v 1.960000 1.558579 -0.000000
v 1.960000 1.700000 -0.141421
v 1.960000 1.841421 0.000000
vt 0.953125 0.906250
vt 0.906250 1.000000
vt 0.906250 0.906250
vt 0.937500 0.500000
vt 1.000000 0.687500
vt 0.937500 0.687500
vt 1.000000 0.500000
vt 0.937500 0.687500
vt 0.937500 0.500000
vt 0.937500 0.500000
vt 1.000000 0.687500
vt 0.937500 0.687500
vt 0.937500 0.687500
vt 1.000000 0.500000
vt 1.000000 0.687500
vt 0.953125 0.500000
vt 0.937500 0.500000
vt 0.937500 0.562500
vt 0.953125 0.687500
vt 0.937500 0.500000
vt 0.984375 0.593750
vt 0.953125 0.656250
vt 0.953125 0.593750
vt 0.984375 0.593750
vt 0.953125 0.656250
vt 0.953125 0.593750
vt 0.984375 0.593750
vt 0.953125 0.593750
vt 0.984375 0.593750
vt 0.953125 0.656250
vt 0.953125 0.593750
vt 0.984375 0.593750
vt 0.953125 0.656250
vt 0.953125 0.593750
vt 0.953125 1.000000
vt 1.000000 0.500000
vt 1.000000 0.687500
vt 1.000000 0.500000
vt 0.937500 0.687500
vt 0.953125 0.687500
vt 0.953125 0.687500
vt 0.937500 0.500000
vt 0.953125 0.500000
vt 0.984375 0.656250
vt 0.984375 0.656250
vt 0.984375 0.656250
vt 0.984375 0.656250
vn -1.000000 0.000000 0.000000
vn 0.000000 -0.707100 0.707100
vn 0.000000 0.707100 0.707100
vn 0.000000 0.707100 -0.707100
vn 0.000000 -0.707100 -0.707100
vn 1.000000 0.000000 0.000000
usemtl Base
s off
f 68/181/50 70/182/50 67/183/50
f 67/184/51 72/185/51 71/186/51
f 73/187/52 67/188/52 71/189/52
f 73/190/53 69/191/53 68/192/53
f 69/193/54 72/194/54 70/195/54
f 72/196/55 76/197/55 77/198/55
f 78/199/55 74/200/55 73/190/55
f 80/201/55 82/202/55 79/203/55
f 77/204/53 79/205/53 75/206/53
f 75/207/54 82/202/54 78/208/54
f 78/209/51 81/210/51 76/211/51
f 76/212/52 80/213/52 77/214/52
f 68/181/50 69/215/50 70/182/50
f 67/184/51 70/216/51 72/185/51
f 73/187/52 68/217/52 67/188/52
f 73/190/53 74/218/53 69/191/53
f 69/193/54 74/200/54 72/194/54
f 77/198/55 75/219/55 71/220/55
f 72/196/55 74/221/55 76/197/55
f 77/198/55 71/220/55 72/196/55
f 71/186/55 75/222/55 73/190/55
f 78/199/55 76/223/55 74/200/55
f 73/190/55 75/222/55 78/199/55
f 80/201/55 81/224/55 82/202/55
f 77/204/53 80/225/53 79/205/53
f 75/207/54 79/226/54 82/202/54
f 78/209/51 82/227/51 81/210/51
f 76/212/52 81/224/52 80/213/52
g Claw_1_Cube_4
v 0.200000 1.108333 0.350000
v 0.200000 1.108333 0.450000
v -0.200000 1.108333 0.450000
v -0.200000 1.108333 0.350000
v 0.200000 1.691667 0.350000
v 0.200000 1.691667 0.450000
v -0.200000 1.691667 0.450000
v -0.200000 1.691667 0.350000
v 0.200000 1.808333 0.350000
v -0.200000 1.808333 0.350000
vt 0.000000 0.000000
vt 0.000000 0.000000
vt 0.000000 0.000000
vt 0.000000 0.000000
vt 0.000000 0.000000
vt 0.000000 0.000000
vt 0.203125 0.687500
vt 0.218750 0.500000
vt 0.218750 0.687500
vt 0.265625 0.687500
vt 0.203125 0.500000
vt 0.265625 0.500000
vt 0.203125 0.687500
vt 0.218750 0.500000
vt 0.218750 0.687500
vt 0.203125 0.500000
vt 0.265625 0.687500
vt 0.265625 0.718750
vt 0.203125 0.656250
vt 0.203125 0.718750
vt 0.218750 0.687500
vt 0.203125 0.718750
vt 0.203125 0.687500
vt 0.203125 0.718750
vt 0.218750 0.687500
vt 0.265625 0.656250
vt 0.203125 0.656250
vt 0.000000 0.000000
vt 0.000000 0.000000
vt 0.203125 0.500000
vt 0.203125 0.500000
vt 0.265625 0.500000
vt 0.265625 0.656250
vt 0.265625 0.718750
vn 0.000000 -1.000000 0.000000
vn 0.000000 1.000000 0.000000
vn 1.000000 -0.000000 0.000000
vn -0.000000 -0.000000 1.000000
vn -1.000000 0.000000 -0.000000
vn 0.000000 0.000000 -1.000000
vn -0.000000 0.650800 0.759300
usemtl Base
s off
f 84/228/56 86/229/56 83/230/56
f 90/231/57 88/232/57 87/233/57
f 87/234/58 84/235/58 83/236/58
f 88/237/59 85/238/59 84/239/59
f 89/240/60 86/241/60 85/242/60
f 83/243/61 90/244/61 87/234/61
f 90/245/61 91/246/61 87/247/61
f 87/248/58 91/249/58 88/250/58
f 92/251/60 90/252/60 89/240/60
f 88/253/62 92/251/62 89/254/62
f 84/228/56 85/255/56 86/229/56
f 90/231/57 89/256/57 88/232/57
f 87/234/58 88/257/58 84/235/58
f 88/237/59 89/240/59 85/238/59
f 89/240/60 90/258/60 86/241/60
f 83/243/61 86/259/61 90/244/61
f 90/245/61 92/260/61 91/246/61
f 88/253/62 91/261/62 92/251/62
